<svg width="150" height="150" viewBox="0 0 150 150" fill="none" xmlns="http://www.w3.org/2000/svg">
<rect width="150" height="150" rx="75" fill="white"/>
<path d="M63.224 41.032V84.904C63.224 93.032 61.08 99.208 56.792 103.432C52.568 107.592 46.616 109.672 38.936 109.672C30.68 109.672 24.12 107.4 19.256 102.856C14.392 98.312 11.96 91.688 11.96 82.984H32.984C32.984 85.736 33.432 87.688 34.328 88.84C35.224 89.928 36.44 90.472 37.976 90.472C39.256 90.472 40.248 90.056 40.952 89.224C41.656 88.392 42.008 86.952 42.008 84.904V41.032H63.224ZM100.745 41.032C107.849 41.032 114.057 42.472 119.369 45.352C124.745 48.232 128.873 52.232 131.753 57.352C134.633 62.472 136.073 68.296 136.073 74.824C136.073 81.288 134.633 87.112 131.753 92.296C128.873 97.48 124.745 101.576 119.369 104.584C114.057 107.528 107.849 109 100.745 109H72.425V41.032H100.745ZM98.825 89.992C103.625 89.992 107.433 88.68 110.249 86.056C113.065 83.432 114.473 79.688 114.473 74.824C114.473 69.96 113.065 66.216 110.249 63.592C107.433 60.968 103.625 59.656 98.825 59.656H93.737V89.992H98.825Z" fill="black"/>
</svg>
